<?xml version="1.0" encoding="UTF-8" standalone="no"?>
<!-- Created with Inkscape (http://www.inkscape.org/) -->

<svg
   width="50mm"
   height="50mm"
   viewBox="0 0 50 50"
   version="1.1"
   id="svg3031"
   inkscape:version="1.2.2 (732a01da63, 2022-12-09)"
   sodipodi:docname="logo_teachers.svg"
   xmlns:inkscape="http://www.inkscape.org/namespaces/inkscape"
   xmlns:sodipodi="http://sodipodi.sourceforge.net/DTD/sodipodi-0.dtd"
   xmlns:xlink="http://www.w3.org/1999/xlink"
   xmlns="http://www.w3.org/2000/svg"
   xmlns:svg="http://www.w3.org/2000/svg">
  <sodipodi:namedview
     id="namedview3033"
     pagecolor="#ffffff"
     bordercolor="#000000"
     borderopacity="0.25"
     inkscape:showpageshadow="2"
     inkscape:pageopacity="0.0"
     inkscape:pagecheckerboard="0"
     inkscape:deskcolor="#d1d1d1"
     inkscape:document-units="mm"
     showgrid="false"
     inkscape:zoom="1.1893044"
     inkscape:cx="10.930759"
     inkscape:cy="142.9407"
     inkscape:window-width="2560"
     inkscape:window-height="1494"
     inkscape:window-x="-11"
     inkscape:window-y="-11"
     inkscape:window-maximized="1"
     inkscape:current-layer="layer1" />
  <defs
     id="defs3028">
    <clipPath
       clipPathUnits="userSpaceOnUse"
       id="clipPath477">
      <path
         d="m 297.4357,376.2782 c 81.1142,0 146.8701,-65.7561 146.8701,-146.87 0,-81.1143 -65.7559,-146.8701 -146.8701,-146.8701 -81.114,0 -146.8698,65.7558 -146.8698,146.8701 0,81.1139 65.7558,146.87 146.8698,146.87"
         clip-rule="evenodd"
         id="path475" />
    </clipPath>
    <radialGradient
       inkscape:collect="always"
       xlink:href="#linearGradient1604"
       id="radialGradient1606"
       cx="23.268887"
       cy="215.62976"
       fx="23.268887"
       fy="215.62976"
       r="93.751091"
       gradientTransform="matrix(1.2082725,0,0,0.64000419,171.28239,-266.84658)"
       gradientUnits="userSpaceOnUse"
       spreadMethod="reflect" />
    <linearGradient
       inkscape:collect="always"
       id="linearGradient1604">
      <stop
         style="stop-color:#5cc6d8;stop-opacity:1"
         offset="0"
         id="stop1600" />
      <stop
         style="stop-color:#2a9aaa;stop-opacity:1"
         offset="1"
         id="stop1602" />
    </linearGradient>
    <radialGradient
       inkscape:collect="always"
       xlink:href="#linearGradient1543"
       id="radialGradient910"
       gradientUnits="userSpaceOnUse"
       gradientTransform="matrix(-1.4631033,-0.77838887,-0.48199424,0.90598354,766.3157,-98.201213)"
       cx="367.42856"
       cy="293.58893"
       fx="367.42856"
       fy="293.58893"
       r="139.9995" />
    <linearGradient
       inkscape:collect="always"
       id="linearGradient1543">
      <stop
         style="stop-color:#a1b9c0;stop-opacity:1"
         offset="0"
         id="stop1539" />
      <stop
         style="stop-color:#c0c0c0;stop-opacity:1"
         offset="1"
         id="stop1541" />
    </linearGradient>
    <radialGradient
       inkscape:collect="always"
       xlink:href="#linearGradient1652"
       id="radialGradient1654"
       cx="-48.165943"
       cy="-227.44756"
       fx="-48.165943"
       fy="-227.44756"
       r="7.3184705"
       gradientTransform="matrix(0.72342996,-0.04835479,-0.07217021,-1.0797294,193.77095,-394.0656)"
       gradientUnits="userSpaceOnUse" />
    <linearGradient
       inkscape:collect="always"
       id="linearGradient1652">
      <stop
         style="stop-color:#000000;stop-opacity:1"
         offset="0"
         id="stop1648" />
      <stop
         style="stop-color:#0b295d;stop-opacity:1"
         offset="1"
         id="stop1650" />
    </linearGradient>
    <radialGradient
       inkscape:collect="always"
       xlink:href="#linearGradient1652"
       id="radialGradient1654-9"
       cx="-48.165943"
       cy="-227.44756"
       fx="-48.165943"
       fy="-227.44756"
       r="7.3184705"
       gradientTransform="matrix(0.60885298,-0.04069635,-0.06073988,-0.90872164,221.18066,-354.63387)"
       gradientUnits="userSpaceOnUse" />
    <linearGradient
       inkscape:collect="always"
       xlink:href="#linearGradient948"
       id="linearGradient950"
       x1="-52.651585"
       y1="127.19991"
       x2="-52.651585"
       y2="91.142906"
       gradientUnits="userSpaceOnUse"
       gradientTransform="translate(222.47539,-376.63863)" />
    <linearGradient
       inkscape:collect="always"
       id="linearGradient948">
      <stop
         style="stop-color:#aec2c9;stop-opacity:1"
         offset="0"
         id="stop944" />
      <stop
         style="stop-color:#dce6e8;stop-opacity:1"
         offset="1"
         id="stop946" />
    </linearGradient>
    <linearGradient
       inkscape:collect="always"
       xlink:href="#linearGradient959"
       id="linearGradient961"
       x1="-150"
       y1="46.483772"
       x2="-150"
       y2="60.986176"
       gradientUnits="userSpaceOnUse"
       gradientTransform="translate(222.47541,-346.73538)" />
    <linearGradient
       inkscape:collect="always"
       id="linearGradient959">
      <stop
         style="stop-color:#8bb3bf;stop-opacity:1"
         offset="0"
         id="stop955" />
      <stop
         style="stop-color:#a5b8be;stop-opacity:1"
         offset="1"
         id="stop957" />
    </linearGradient>
    <clipPath
       clipPathUnits="userSpaceOnUse"
       id="clipPath1019-7">
      <rect
         style="font-variation-settings:normal;opacity:1;vector-effect:none;fill:none;fill-opacity:1;stroke:#898a8d;stroke-width:0.296255px;stroke-linecap:butt;stroke-linejoin:miter;stroke-miterlimit:4;stroke-dasharray:none;stroke-dashoffset:0;stroke-opacity:1;stop-color:#000000;stop-opacity:1"
         id="rect1021-2"
         width="126.7757"
         height="3.0896335"
         x="62.550522"
         y="263.93311"
         transform="scale(1,-1)" />
    </clipPath>
    <clipPath
       clipPathUnits="userSpaceOnUse"
       id="clipPath3428">
      <rect
         style="font-variation-settings:normal;opacity:1;vector-effect:none;fill:none;fill-opacity:1;stroke:#898a8d;stroke-width:0.296255px;stroke-linecap:butt;stroke-linejoin:miter;stroke-miterlimit:4;stroke-dasharray:none;stroke-dashoffset:0;stroke-opacity:1;stop-color:#000000;stop-opacity:1"
         id="rect3426"
         width="126.7757"
         height="3.0896335"
         x="62.550522"
         y="263.93311"
         transform="scale(1,-1)" />
    </clipPath>
    <clipPath
       clipPathUnits="userSpaceOnUse"
       id="clipPath121-9">
      <rect
         style="font-variation-settings:normal;opacity:1;vector-effect:none;fill:none;fill-opacity:1;stroke:#898a8d;stroke-width:0.296335px;stroke-linecap:butt;stroke-linejoin:miter;stroke-miterlimit:4;stroke-dasharray:none;stroke-dashoffset:0;stroke-opacity:1;stop-color:#000000;stop-opacity:1"
         id="rect123-6"
         width="126.77561"
         height="3.0913074"
         x="63.320282"
         y="-266.91516" />
    </clipPath>
    <clipPath
       clipPathUnits="userSpaceOnUse"
       id="clipPath135-1">
      <rect
         style="font-variation-settings:normal;opacity:1;vector-effect:none;fill:none;fill-opacity:1;stroke:#898a8d;stroke-width:0.296335px;stroke-linecap:butt;stroke-linejoin:miter;stroke-miterlimit:4;stroke-dasharray:none;stroke-dashoffset:0;stroke-opacity:1;stop-color:#000000;stop-opacity:1"
         id="rect137-2"
         width="126.7756"
         height="3.0913074"
         x="63.320301"
         y="-266.91513" />
    </clipPath>
    <clipPath
       clipPathUnits="userSpaceOnUse"
       id="clipPath985-4">
      <rect
         style="font-variation-settings:normal;opacity:1;vector-effect:none;fill:none;fill-opacity:1;stroke:#898a8d;stroke-width:0.296335px;stroke-linecap:butt;stroke-linejoin:miter;stroke-miterlimit:4;stroke-dasharray:none;stroke-dashoffset:0;stroke-opacity:1;stop-color:#000000;stop-opacity:1"
         id="rect987-0"
         width="126.77561"
         height="3.0913074"
         x="63.320282"
         y="-266.91519" />
    </clipPath>
    <clipPath
       clipPathUnits="userSpaceOnUse"
       id="clipPath3438">
      <rect
         style="font-variation-settings:normal;opacity:1;vector-effect:none;fill:none;fill-opacity:1;stroke:#898a8d;stroke-width:0.296335px;stroke-linecap:butt;stroke-linejoin:miter;stroke-miterlimit:4;stroke-dasharray:none;stroke-dashoffset:0;stroke-opacity:1;stop-color:#000000;stop-opacity:1"
         id="rect3436"
         width="126.7756"
         height="3.0913074"
         x="63.320301"
         y="-266.91513" />
    </clipPath>
  </defs>
  <g
     inkscape:label="Layer 1"
     inkscape:groupmode="layer"
     id="layer1"
     transform="translate(-105.88127,-56.800843)">
    <g
       id="g2374"
       transform="matrix(0.38913107,0,0,0.3891311,65.924124,-2.2786753)">
      <g
         id="g3026">
        <g
           id="g2932">
          <path
             d="m 166.92871,151.8242 c 35.4825,0 64.24571,28.76331 64.24571,64.2457 0,35.48253 -28.76321,64.2457 -64.24571,64.2457 -35.48249,0 -64.2457,-28.76317 -64.2457,-64.2457 0,-35.48239 28.76321,-64.2457 64.2457,-64.2457 z m 0,12.52752 c 28.56361,0 51.71821,23.15461 51.71821,51.71818 0,28.56371 -23.1546,51.71821 -51.71821,51.71821 -28.5636,0 -51.71821,-23.1545 -51.71821,-51.71821 0,-28.56357 23.15461,-51.71818 51.71821,-51.71818"
             style="fill:#098aa1;fill-opacity:1;fill-rule:evenodd;stroke:none;stroke-width:0.352778"
             id="path465" />
          <path
             d="m 120.52411,244.84323 -4.39011,2.59097 -0.68449,-1.15979 c -0.2552,-0.43229 -0.40079,-0.7281 -0.43731,-0.88568 -0.0578,-0.25203 -0.0157,-0.51213 0.12461,-0.78102 0.13931,-0.26828 0.3847,-0.5062 0.7342,-0.7125 0.31679,-0.18701 0.61891,-0.28448 0.9036,-0.29238 0.28469,-0.008 0.52289,0.0525 0.71519,0.17988 0.19219,0.12739 0.41762,0.4088 0.67511,0.84522 l 0.27968,0.47378 1.65562,-0.97698 z m -4.07222,1.43457 1.25081,-0.73819 -0.23661,-0.40079 c -0.15808,-0.2679 -0.28578,-0.44013 -0.38047,-0.5141 -0.0948,-0.0741 -0.21001,-0.11289 -0.34562,-0.11631 -0.1367,-0.003 -0.27629,0.0386 -0.42029,0.12361 -0.1462,0.0862 -0.25129,0.19068 -0.3138,0.31369 -0.0623,0.12301 -0.083,0.24201 -0.0617,0.35521 0.0214,0.11338 0.12079,0.32138 0.29989,0.62488 z m 2.20412,-4.57997 -4.62209,2.15007 -1.2971,-2.78839 0.78109,-0.3634 0.9452,2.032 1.01998,-0.47448 -0.87958,-1.89093 0.78098,-0.36329 0.87972,1.89089 1.25878,-0.58557 -0.978,-2.10252 0.78112,-0.3633 z m -4.30131,-5.05291 -0.016,-0.87122 c 0.57838,-0.099 1.04478,-0.061 1.40077,0.11232 0.35613,0.17318 0.6144,0.45869 0.77632,0.85718 0.2037,0.50102 0.17421,0.98612 -0.0874,1.45489 -0.3029,0.54042 -0.83591,0.96563 -1.59759,1.27533 -0.80469,0.3271 -1.50781,0.40308 -2.1093,0.2279 -0.52239,-0.15392 -0.89161,-0.49481 -1.10641,-1.0232 -0.17519,-0.4311 -0.17329,-0.85161 0.005,-1.26259 0.12732,-0.29221 0.37892,-0.57122 0.7553,-0.83623 l 0.5358,0.67511 c -0.23509,0.15279 -0.39077,0.33059 -0.46757,0.53231 -0.0769,0.20158 -0.0749,0.40178 0.006,0.6005 0.11529,0.28381 0.33359,0.46468 0.65479,0.54268 0.3217,0.0791 0.7681,0.002 1.33971,-0.23047 0.59358,-0.2413 0.98019,-0.50021 1.1599,-0.77671 0.1796,-0.27651 0.21311,-0.55341 0.0994,-0.83291 -0.0829,-0.20408 -0.23502,-0.3483 -0.45533,-0.433 -0.22077,-0.0833 -0.51858,-0.0881 -0.89369,-0.0119 z m 1.00481,-2.74112 0.27549,0.78751 -4.81189,1.68321 -1.09481,-3.12971 4.81171,-1.68331 0.27549,0.7875 -3.9986,1.3988 0.54391,1.5548 z m -2.61232,-3.71718 -3.20667,2.34389 -0.2201,-0.91289 2.34597,-1.55952 -2.76789,-0.19078 -0.20299,-0.84191 4.0937,0.4445 c 0.49978,0.0577 0.86339,0.14341 1.08811,0.2552 0.225,0.113 0.36399,0.27951 0.41698,0.4994 0.0511,0.21191 0.0759,0.40601 0.0756,0.5818 l -0.74178,0.17878 c -0.0231,-0.13617 -0.0433,-0.24038 -0.0599,-0.30917 -0.0475,-0.19699 -0.12241,-0.32561 -0.22369,-0.38601 -0.10213,-0.0591 -0.30092,-0.0935 -0.59733,-0.10329 z m 0.85341,-2.58332 -5.00969,0.94403 -0.57461,-3.04991 0.8466,-0.15952 0.42019,2.23012 1.14752,-0.21622 -0.2202,-1.1684 c -0.0831,-0.44108 -0.01,-0.81351 0.21939,-1.11679 0.22909,-0.30328 0.57139,-0.49851 1.02619,-0.5842 0.39653,-0.0747 0.76641,-0.0341 1.10871,0.12319 0.34361,0.15713 0.56399,0.49322 0.661,1.00852 z m -2.3235,-0.41099 1.32242,-0.2492 -0.16372,-0.8684 c -0.0425,-0.22581 -0.0884,-0.38619 -0.13878,-0.48101 -0.0494,-0.0951 -0.13713,-0.16958 -0.26342,-0.225 -0.12499,-0.0544 -0.26279,-0.068 -0.41088,-0.04 -0.44902,0.0845 -0.6204,0.4046 -0.51552,0.9616 z m 1.3788,-5.8197 -4.22088,0.36022 0.10579,1.23969 2.17188,-0.18531 c 0.56522,-0.0482 0.98513,-0.0675 1.25861,-0.0578 0.27492,0.0109 0.4875,0.0744 0.6393,0.19149 0.1518,0.11829 0.2407,0.32241 0.2655,0.61352 0.007,0.0845 0.0103,0.26049 0.0105,0.52888 l -0.80271,0.0685 -0.0155,-0.182 c -0.0154,-0.1796 -0.0549,-0.2945 -0.11882,-0.34582 -0.064,-0.0512 -0.21181,-0.0671 -0.44478,-0.0472 l -3.75141,0.32018 -0.24772,-2.9022 5.07923,-0.43338 z m -0.15138,-1.48679 -5.09471,0.17618 -0.0276,-0.79837 3.39528,-0.11751 -3.4531,-1.5524 -0.0292,-0.8455 5.09471,-0.17611 0.0277,0.79841 -3.32179,0.11479 3.3793,1.55032 z m -0.10322,-3.97072 -5.09708,-0.0819 0.0134,-0.83411 2.17121,0.0349 c -0.0207,-0.18778 -0.0815,-0.31828 -0.18359,-0.3919 -0.10202,-0.0735 -0.34851,-0.1717 -0.74051,-0.29588 -0.39201,-0.12301 -0.6772,-0.25011 -0.85429,-0.37902 -0.17709,-0.1301 -0.28529,-0.26617 -0.32219,-0.4094 -0.0369,-0.14319 -0.0602,-0.38869 -0.0712,-0.73639 l 0.76172,0.0122 -0.002,0.11659 c -0.004,0.23449 0.0495,0.39321 0.1597,0.47869 0.11021,0.0842 0.3211,0.1748 0.63528,0.27171 0.31291,0.0958 0.52052,0.17691 0.62283,0.24101 0.10209,0.0654 0.20369,0.16948 0.30219,0.31129 0.0802,-0.18259 0.20719,-0.3302 0.381,-0.44291 0.17388,-0.11267 0.4633,-0.24828 0.86928,-0.40548 l 1.40321,-0.54321 -0.0157,0.9802 -1.325,0.48189 c -0.33909,0.12192 -0.5745,0.22652 -0.7101,0.3163 -0.13431,0.0885 -0.20529,0.22412 -0.21298,0.40552 l 2.22818,0.0357 -0.0134,0.83418 z m 0.51361,-7.38869 -0.1058,0.90121 -1.18689,0.2177 -0.19463,1.6571 1.10561,0.47498 -0.10379,0.8847 -4.87489,-2.1964 0.1041,-0.88709 z m -2.18021,1.29001 -1.94669,0.35038 1.81398,0.78002 z m 2.20931,-1.5209 -5.0268,-0.84741 0.1386,-0.8226 1.9799,0.33369 0.27379,-1.6243 -1.97989,-0.33369 0.1386,-0.82261 5.02691,0.84731 -0.13861,0.8226 -2.19759,-0.37041 -0.27383,1.62433 2.19763,0.37038 z m -0.45932,-6.97442 0.51633,-0.70188 c 0.51968,0.27259 0.86709,0.586 1.04479,0.9398 0.1778,0.3539 0.20958,0.73759 0.0964,1.15238 -0.14242,0.5218 -0.46041,0.88943 -0.95303,1.103 -0.56868,0.2455 -1.25039,0.25971 -2.04368,0.0432 -0.83802,-0.2287 -1.44279,-0.59531 -1.8143,-1.09971 -0.32159,-0.43949 -0.40802,-0.93458 -0.25781,-1.48477 0.12252,-0.44891 0.37941,-0.78193 0.7711,-0.99992 0.27842,-0.1548 0.6477,-0.2238 1.1078,-0.2057 l 0.0157,0.86169 c -0.27951,-0.0214 -0.51118,0.0253 -0.6948,0.13893 -0.18348,0.11359 -0.3035,0.27379 -0.3599,0.48069 -0.0807,0.2956 -0.017,0.57179 0.19071,0.82878 0.20761,0.25831 0.60921,0.468 1.20449,0.63052 0.6181,0.1686 1.0825,0.1977 1.39322,0.0871 0.31069,-0.1107 0.50529,-0.3104 0.5848,-0.60141 0.058,-0.21259 0.0247,-0.41949 -0.0989,-0.62061 -0.12488,-0.20009 -0.3586,-0.38488 -0.70291,-0.5521 z m 2.1602,-0.79519 -4.84568,-1.58292 0.25901,-0.79297 2.06417,0.6743 c 0.0356,-0.18549 0.0161,-0.32812 -0.0598,-0.42852 -0.0758,-0.1004 -0.28218,-0.26698 -0.62007,-0.5014 -0.33832,-0.23319 -0.5733,-0.43879 -0.70443,-0.61429 -0.13077,-0.1766 -0.19399,-0.3386 -0.1869,-0.48631 0.007,-0.1476 0.0571,-0.38908 0.14933,-0.7246 l 0.72418,0.2365 -0.0362,0.11091 c -0.0729,0.22289 -0.0689,0.39032 0.0112,0.5044 0.0804,0.1131 0.2552,0.26191 0.52673,0.44729 0.27079,0.1838 0.44517,0.32262 0.52388,0.41413 0.0783,0.0925 0.1446,0.222 0.19699,0.38657 0.13042,-0.15078 0.29531,-0.25428 0.49463,-0.31059 0.19949,-0.0564 0.51597,-0.1005 0.95038,-0.13098 l 1.501,-0.1046 -0.30441,0.93179 -1.40829,0.0693 c -0.3599,0.0164 -0.61581,0.0468 -0.7717,0.0925 -0.15448,0.045 -0.2624,0.15359 -0.32329,0.32459 l 2.1184,0.6919 z m 1.05513,-3.1436 -4.7625,-1.81829 0.28497,-0.74641 3.17391,1.21179 -2.57789,-2.77269 0.3018,-0.79029 4.76239,1.81829 -0.28501,0.7464 -3.10508,-1.18561 2.5109,2.742 z m 1.46,-3.68071 -4.56343,-2.27217 0.35613,-0.71512 3.04119,1.51419 -2.29651,-3.0099 0.37712,-0.7573 4.56339,2.2722 -0.35609,0.71522 -2.97533,-1.48152 2.23273,2.97293 z m -4.81012,-4.81168 0.17342,-0.34812 c 0.2805,0.16341 0.46408,0.3562 0.5479,0.57951 0.0836,0.22341 0.0719,0.4439 -0.0358,0.66012 -0.10819,0.21727 -0.2771,0.35948 -0.50581,0.42739 -0.22849,0.0678 -0.49361,0.0385 -0.7941,-0.0849 l 0.17332,-0.34808 c 0.31048,0.12178 0.53329,0.0471 0.6677,-0.22292 0.13399,-0.269 0.0588,-0.49068 -0.22662,-0.66298 z m 7.36991,-0.15152 -4.32371,-2.70047 0.44192,-0.70761 1.84178,1.15038 c 0.0792,-0.17149 0.0945,-0.31468 0.045,-0.43039 -0.0495,-0.11561 -0.2099,-0.32689 -0.48161,-0.6356 -0.27242,-0.30759 -0.4511,-0.56371 -0.53619,-0.76549 -0.0846,-0.20292 -0.107,-0.37532 -0.0646,-0.517 0.0422,-0.14161 0.14891,-0.36389 0.31891,-0.66749 l 0.64622,0.40347 -0.0618,0.099 c -0.12421,0.19879 -0.16051,0.3623 -0.11031,0.4923 0.0509,0.12908 0.18489,0.31549 0.404,0.56067 0.21862,0.24352 0.35451,0.42012 0.40901,0.52782 0.0538,0.10859 0.0871,0.2503 0.0984,0.4226 0.16281,-0.11501 0.3477,-0.1759 0.55482,-0.18271 0.20708,-0.007 0.525,0.0264 0.95387,0.10121 l 1.48223,0.25891 -0.51932,0.83139 -1.3837,-0.2709 c -0.35331,-0.0706 -0.6089,-0.10252 -0.77128,-0.0956 -0.1608,0.006 -0.29161,0.086 -0.39183,0.23738 l 1.89022,1.1805 z m -0.40171,-4.10319 c -0.49829,-0.34551 -0.85781,-0.70369 -1.07918,-1.07378 -0.22151,-0.37003 -0.32942,-0.7287 -0.3236,-1.07453 0.006,-0.34579 0.12559,-0.68718 0.35849,-1.0232 0.33839,-0.48799 0.80081,-0.75519 1.3891,-0.8019 0.58829,-0.0466 1.22841,0.1692 1.92179,0.64993 0.7002,0.48538 1.13552,1.0281 1.3039,1.62658 0.15071,0.5261 0.0561,1.0353 -0.28289,1.52439 -0.3424,0.49393 -0.78489,0.76341 -1.32651,0.80942 -0.61948,0.0523 -1.2736,-0.16031 -1.9611,-0.63691 z m 0.4631,-0.72838 c 0.4808,0.3332 0.9048,0.49237 1.27021,0.47759 0.3671,-0.015 0.6435,-0.15741 0.82941,-0.4257 0.188,-0.27111 0.22479,-0.5783 0.10869,-0.9211 -0.1144,-0.34322 -0.41931,-0.6864 -0.9138,-1.0293 -0.48369,-0.33531 -0.90219,-0.49791 -1.25352,-0.48482 -0.35229,0.0124 -0.62548,0.1585 -0.82017,0.43942 -0.194,0.27979 -0.23471,0.5885 -0.1239,0.92629 0.1119,0.33859 0.41268,0.67751 0.90308,1.01762 z m 4.18722,-1.47031 -3.89343,-3.29071 0.80712,-0.95479 3.14748,1.67298 -2.17999,-2.81767 0.81301,-0.96203 3.8933,3.29082 -0.50201,0.5939 -3.0704,-2.59521 2.53732,3.22601 -0.5165,0.61098 -3.6044,-1.96349 3.07047,2.59531 z m 5.6617,-6.15932 -0.64901,0.63401 -1.0596,-0.57721 -1.19359,1.16582 0.56067,1.06479 -0.63719,0.62241 -2.4082,-4.7739 0.63892,-0.62399 z m -2.50621,-0.36848 -1.73379,-0.95211 0.91958,1.74749 z m 2.6712,0.20408 -3.38391,-3.81257 0.62392,-0.55383 1.33279,1.5016 1.23201,-1.0935 -1.33283,-1.5015 0.62392,-0.55379 3.38399,3.81261 -0.624,0.55369 -1.4793,-1.66659 -1.232,1.0934 1.4793,1.66669 z m 5.0468,-5.21948 0.2914,-0.21241 1.1618,1.5936 -0.55411,0.40411 -0.65429,-0.89761 -2.11949,1.5452 0.6543,0.89751 -0.55411,0.40389 -1.16191,-1.59371 0.28,-0.20397 c -0.1009,-0.36841 -0.26988,-0.7783 -0.50871,-1.22982 -0.23777,-0.45219 -0.65218,-1.08261 -1.2428,-1.8928 l -0.40128,-0.5504 2.31369,-1.68681 z m -2.66209,-2.23552 -0.99981,0.7287 c 0.88568,1.21493 1.45701,2.19061 1.7139,2.92703 l 1.27388,-0.92883 z m 3.7514,2.50412 -2.80081,-4.2594 0.69699,-0.4584 1.1032,1.6777 1.3763,-0.90512 -1.10311,-1.6776 0.69702,-0.4584 2.80081,4.25951 -0.69702,0.4583 -1.22438,-1.862 -1.3764,0.90502 1.22439,1.8621 z m 3.33188,-2.19562 -2.37398,-4.51118 0.73819,-0.38851 0.94498,1.79571 1.05213,-0.55372 c 0.39098,-0.20567 0.76859,-0.24218 1.13118,-0.10989 0.36262,0.13229 0.65299,0.4059 0.8708,0.81971 0.1779,0.3381 0.24701,0.69469 0.20619,1.0674 -0.0403,0.3738 -0.29739,0.68478 -0.77177,0.93451 z m -0.28959,-2.3417 0.62671,1.1908 0.782,-0.41148 c 0.20338,-0.107 0.34318,-0.19801 0.41899,-0.27411 0.0763,-0.075 0.12129,-0.18189 0.136,-0.32099 0.0142,-0.13751 -0.0139,-0.27432 -0.0841,-0.4077 -0.21051,-0.40002 -0.56572,-0.46789 -1.0673,-0.20391 z m 3.94331,0.41903 -2.37412,-4.51122 0.73829,-0.38851 2.37413,4.51122 z m 1.27438,-0.64883 -1.91978,-4.72239 0.74009,-0.30081 1.27949,3.1472 0.26832,-3.77649 0.7838,-0.31859 1.91968,4.72239 -0.7401,0.30092 -1.25158,-3.07901 -0.29171,3.70639 z m -0.42521,-6.7903 0.36033,-0.1464 c 0.10227,0.30811 0.11257,0.57421 0.0276,0.79703 -0.0849,0.22278 -0.23961,0.38047 -0.46341,0.47148 -0.22479,0.0914 -0.4457,0.0864 -0.66199,-0.014 -0.21629,-0.1003 -0.39582,-0.2976 -0.53961,-0.589 l 0.36029,-0.1464 c 0.15233,0.29679 0.3689,0.38802 0.6483,0.27449 0.27831,-0.1132 0.36862,-0.32917 0.2685,-0.6472 z m 4.60802,1.60743 -0.51541,-1.74833 0.80032,-0.2358 0.38279,1.29872 c 0.0798,0.27079 0.15078,0.47011 0.21351,0.5951 0.0615,0.12538 0.1603,0.21879 0.29449,0.2782 0.13311,0.0597 0.3138,0.0559 0.54088,-0.0111 0.34022,-0.1003 0.58533,-0.269 0.73643,-0.50649 l -0.62213,-2.11021 0.80032,-0.2359 1.44141,4.88971 -0.80021,0.23591 -0.57979,-1.96681 c -0.2643,0.26589 -0.5553,0.4457 -0.87291,0.5394 -0.44189,0.13021 -0.8212,0.1059 -1.14032,-0.0721 -0.31909,-0.17808 -0.54508,-0.49509 -0.67938,-0.95028 z m 4.70091,2.0392 -1.19472,-4.95582 2.98972,-0.7208 0.2019,0.83749 -2.17872,0.52533 0.2637,1.09357 2.02741,-0.48888 0.2019,0.8375 -2.02742,0.4888 0.32533,1.3497 2.25429,-0.54349 0.20189,0.8376 z m 3.53737,-0.88152 -0.68979,-5.05079 1.23871,-0.1692 1.2185,3.34988 0.26638,-3.55269 1.24813,-0.17039 0.68968,5.05079 -0.7705,0.1052 -0.54399,-3.98329 -0.27432,4.09508 -0.79279,0.10831 -1.36349,-3.87139 0.54391,3.98329 z m 5.42932,-0.68891 -0.83121,0.071 -0.4335,-5.0793 3.3037,-0.2819 0.43349,5.07929 -0.83118,0.0709 -0.36019,-4.22092 -1.64133,0.14002 z m 3.1235,-0.27238 0.0818,-5.09711 0.7989,0.0128 -0.0546,3.3969 1.72511,-3.37009 0.846,0.0136 -0.0819,5.09711 -0.7988,-0.0128 0.0534,-3.3233 -1.71923,3.29649 z m 3.957,-2.47512 c 0.0403,-0.60498 0.16291,-1.09749 0.36661,-1.47758 0.20358,-0.38001 0.45589,-0.6569 0.7555,-0.82969 0.29969,-0.17272 0.65409,-0.24533 1.06197,-0.21823 0.59263,0.0395 1.05953,0.29901 1.40173,0.77971 0.3423,0.48059 0.48609,1.1407 0.43,1.9825 -0.0566,0.8502 -0.29852,1.50252 -0.72542,1.9545 -0.3738,0.39959 -0.8594,0.5801 -1.45309,0.54059 -0.59962,-0.04 -1.0583,-0.28109 -1.37611,-0.7221 -0.36308,-0.50458 -0.51679,-1.17499 -0.46119,-2.0097 z m 0.86289,0.0231 c -0.0389,0.58371 0.0424,1.0292 0.24282,1.33502 0.20158,0.30731 0.46577,0.4711 0.79149,0.4928 0.32911,0.022 0.61151,-0.10432 0.846,-0.38002 0.23558,-0.2746 0.37341,-0.7125 0.41338,-1.31279 0.0392,-0.5872 -0.0364,-1.0299 -0.22807,-1.3245 -0.1917,-0.29591 -0.45741,-0.45508 -0.7984,-0.47791 -0.3398,-0.0226 -0.62551,0.101 -0.85842,0.36982 -0.2329,0.26991 -0.36911,0.7021 -0.4088,1.29758 z m 3.43461,2.7751 0.8473,-5.02688 0.82261,0.13868 -0.33373,1.97983 1.62433,0.27389 0.3337,-1.97989 0.82267,0.13857 -0.84737,5.02691 -0.82261,-0.13868 0.37039,-2.19753 -1.6243,-0.27379 -0.37038,2.19749 z m 7.57188,1.4534 -0.88607,-0.19508 -0.0982,-1.20269 -1.62931,-0.35902 -0.583,1.05262 -0.86988,-0.19163 2.67198,-4.63138 0.87231,0.1922 z m -1.06577,-2.29799 -0.15441,-1.97199 -0.9572,1.7272 z m 2.18129,2.644 1.11531,-4.08679 -1.18682,-0.32392 0.22691,-0.831 3.17828,0.8673 -0.22687,0.83111 -1.18671,-0.32378 -1.11531,4.08668 z m 6.95809,0.43021 0.6478,0.58268 c -0.3223,0.4904 -0.6683,0.8054 -1.03791,0.9476 -0.36957,0.1421 -0.75448,0.1361 -1.1563,-0.0173 -0.50517,-0.1929 -0.83978,-0.5454 -1.00407,-1.0565 -0.18842,-0.5902 -0.13572,-1.27 0.15758,-2.03821 0.30992,-0.8115 0.7341,-1.37728 1.27261,-1.6976 0.46888,-0.2769 0.97,-0.31429 1.5028,-0.11081 0.4348,0.16602 0.74091,0.45431 0.91941,0.8655 0.12679,0.29221 0.15918,0.66661 0.096,1.12272 l -0.85901,-0.069 c 0.0486,-0.27611 0.0249,-0.51131 -0.0701,-0.70499 -0.095,-0.19381 -0.24271,-0.329 -0.44298,-0.40541 -0.28632,-0.10929 -0.56741,-0.0731 -0.8436,0.10852 -0.27742,0.18118 -0.52543,0.56017 -0.74552,1.13668 -0.2286,0.59859 -0.30307,1.05791 -0.22349,1.37792 0.0796,0.31997 0.25919,0.5334 0.54109,0.64099 0.20581,0.0786 0.41501,0.0657 0.62721,-0.0374 0.21149,-0.10471 0.41821,-0.31923 0.61849,-0.64541 z m 0.54271,2.28399 2.27221,-4.56329 1.20558,0.60029 c 0.4494,0.2238 0.73251,0.39261 0.84899,0.5049 0.18564,0.17991 0.29193,0.421 0.32061,0.72301 0.0291,0.30078 -0.0472,0.63398 -0.22811,0.99731 -0.1639,0.32928 -0.36428,0.57559 -0.59877,0.7372 -0.23452,0.16157 -0.46722,0.24049 -0.6979,0.23837 -0.2305,-0.002 -0.57291,-0.11557 -1.02641,-0.34149 l -0.49261,-0.24529 -0.8568,1.72089 z m 2.635,-3.42029 -0.64731,1.3002 0.41653,0.2074 c 0.27848,0.13868 0.47949,0.21361 0.59929,0.22419 0.1197,0.0105 0.23749,-0.0197 0.3531,-0.0906 0.1161,-0.0721 0.21068,-0.18271 0.2854,-0.3325 0.0756,-0.15201 0.10689,-0.29672 0.0923,-0.43391 -0.0146,-0.1372 -0.062,-0.24829 -0.1416,-0.33161 -0.0796,-0.0834 -0.2763,-0.20387 -0.59168,-0.3609 z m 0.62971,5.0624 2.48959,-4.44849 2.68369,1.50199 -0.4208,0.7518 -1.95559,-1.0946 -0.54941,0.98168 1.81991,1.0185 -0.4208,0.7517 -1.81991,-1.01847 -0.678,1.21158 2.0235,1.13242 -0.42079,0.75177 z m 6.30809,2.89998 0.2963,0.20531 -1.1237,1.62091 -0.5635,-0.39081 0.63278,-0.91281 -2.15547,-1.4944 -0.63292,0.91281 -0.56349,-0.3907 1.1237,-1.6207 0.28469,0.19731 c 0.31482,-0.21632 0.6464,-0.5105 0.99452,-0.88431 0.349,-0.3732 0.80828,-0.97158 1.37957,-1.7956 l 0.38802,-0.55979 2.35321,1.63139 z m 1.23719,-3.24877 -1.01681,-0.70492 c -0.85658,1.2356 -1.5905,2.0956 -2.20158,2.58011 l 1.29561,0.89821 z m -1.13428,4.36739 3.1012,-4.0459 0.63408,0.48598 -2.06679,2.69632 3.39292,-1.67982 0.67147,0.51463 -3.1013,4.04587 -0.63398,-0.48599 2.02188,-2.638 -3.3443,1.6244 z m 7.32208,4.37109 1.55592,-3.6546 0.6562,0.67179 -1.21782,2.54032 2.4759,-1.25232 0.60523,0.61951 -3.74471,1.71259 c -0.45899,0.2061 -0.81519,0.3186 -1.06553,0.33751 -0.25117,0.018 -0.45568,-0.054 -0.61379,-0.2158 -0.1524,-0.15589 -0.27288,-0.30991 -0.36259,-0.46118 l 0.54578,-0.53323 c 0.0895,0.10531 0.16024,0.18451 0.20973,0.23502 0.14161,0.14499 0.27167,0.21721 0.38968,0.21728 0.11779,-10e-4 0.30632,-0.0735 0.566,-0.21689 z m 2.97719,0.41321 1.36321,-1.20992 0.55372,0.62392 -1.01262,0.8987 c -0.2112,0.1875 -0.36128,0.33648 -0.44778,0.44641 -0.0874,0.10908 -0.12993,0.23809 -0.1265,0.38488 0.002,0.1458 0.0827,0.30769 0.23999,0.48482 0.23541,0.26529 0.4923,0.4154 0.7716,0.4511 l 1.64528,-1.46033 0.55383,0.62393 -3.81261,3.38388 -0.55369,-0.62389 1.53349,-1.36119 c -0.35309,-0.12612 -0.63951,-0.31302 -0.8594,-0.5606 -0.30579,-0.34453 -0.4451,-0.69822 -0.41959,-1.06282 0.0255,-0.36449 0.21607,-0.70379 0.57107,-1.01889 z m 0.1651,5.11598 4.11932,-3.00298 0.4706,0.64558 -2.74521,2.00131 3.7295,-0.6513 0.4984,0.68372 -4.11928,3.00309 -0.4706,-0.64562 2.6858,-1.95798 -3.6673,0.61168 z m 2.84551,3.978 3.53952,-2.32738 -0.67581,-1.02789 0.71981,-0.47333 1.80999,2.75273 -0.71981,0.47329 -0.67578,-1.02789 -3.53963,2.32748 z m 1.28972,2.02032 4.39007,-2.59101 1.56313,2.64851 -0.7419,0.4378 -1.13912,-1.93001 -0.96879,0.57181 1.05999,1.796 -0.74189,0.4379 -1.05989,-1.7961 -1.19571,0.7057 1.1786,1.997 -0.74189,0.43791 z m 2.8285,5.31301 3.84098,-1.78682 -0.5249,-1.12811 -1.97641,0.91941 c -0.51427,0.23921 -0.90208,0.40139 -1.1624,0.48609 -0.26187,0.0842 -0.48337,0.0975 -0.66597,0.0396 -0.1832,-0.059 -0.3368,-0.22031 -0.46002,-0.48532 -0.0358,-0.0768 -0.0991,-0.24098 -0.19149,-0.49297 l 0.7306,-0.33983 0.077,0.16563 c 0.076,0.1633 0.15258,0.2577 0.2303,0.28388 0.0776,0.0263 0.22189,-0.01 0.43388,-0.1082 l 3.4139,-1.5881 1.22851,2.641 -4.62209,2.15011 z m 0.62057,1.35848 4.72243,-1.91979 1.1582,2.8489 -0.79812,0.32448 -0.84399,-2.0761 -1.042,0.42362 0.78539,1.93199 -0.79809,0.32441 -0.78539,-1.93202 -1.28623,0.52292 0.87331,2.1481 -0.79809,0.32438 z m 1.39383,3.38289 4.88967,-1.44138 0.22592,0.7662 -3.25861,0.96068 3.73112,0.64191 0.23919,0.8115 -4.88971,1.44152 -0.22589,-0.7663 3.18809,-0.9398 -3.65919,-0.65832 z m 6.79898,0.2511 0.10999,0.373 c -0.31679,0.0713 -0.58257,0.055 -0.7959,-0.0516 -0.21329,-0.10672 -0.35479,-0.27623 -0.42308,-0.50789 -0.0686,-0.2328 -0.0417,-0.45212 0.0796,-0.65741 0.12132,-0.20531 0.33553,-0.36431 0.63962,-0.4784 l 0.10989,0.37289 c -0.31041,0.1222 -0.42269,0.32861 -0.33739,0.61789 0.0849,0.28822 0.291,0.39952 0.61729,0.3315 z m -5.21949,5.09461 5.00959,-0.94389 0.14791,0.7851 -3.33851,0.62901 3.6479,1.01289 0.1567,0.83139 -5.00958,0.9439 -0.14803,-0.78511 3.2663,-0.61539 -3.57469,-1.02178 z m 0.74309,3.8886 5.0509,-0.68979 0.11292,0.82649 -1.98931,0.27171 0.22292,1.63209 1.98928,-0.27171 0.11281,0.82663 -5.05082,0.68979 -0.11289,-0.8266 2.208,-0.30152 -0.22281,-1.63209 -2.20808,0.30149 z m 5.76061,6.22589 -0.50531,0.0175 c -0.0187,1.20802 -0.66439,1.83391 -1.93809,1.8779 -1.2724,0.044 -1.95859,-0.5359 -2.06079,-1.73958 l -0.59052,0.0204 -0.0288,-0.83368 0.59048,-0.0205 c 0.0166,-1.20308 0.66121,-1.82669 1.93601,-1.87078 1.2761,-0.0441 1.96331,0.5334 2.0629,1.73259 l 0.50521,-0.0175 z m -1.3662,0.0473 -2.277,0.0787 c 0.0228,0.65949 0.41839,0.97589 1.18808,0.94929 0.74832,-0.0259 1.11161,-0.36858 1.08892,-1.02799 z m -2.30579,-0.75498 2.2769,-0.0788 c -0.0226,-0.65472 -0.41582,-0.9688 -1.18071,-0.94241 -0.75311,0.0261 -1.11891,0.3665 -1.09619,1.02122 z m 1.17168,3.01748 c 0.60632,0.01 1.10441,0.10732 1.49419,0.2915 0.38993,0.18412 0.67921,0.4221 0.86681,0.71268 0.18772,0.29052 0.2782,0.64083 0.27161,1.04962 -0.009,0.5938 -0.24511,1.07319 -0.70789,1.4393 -0.46281,0.36619 -1.11481,0.543 -1.9583,0.52959 -0.852,-0.0137 -1.51561,-0.22239 -1.9885,-0.6259 -0.41812,-0.3532 -0.6229,-0.82899 -0.61341,-1.42398 0.01,-0.60082 0.22729,-1.071 0.65172,-1.41069 0.48567,-0.38813 1.14737,-0.57552 1.98377,-0.56212 z m 0.0205,0.8629 c -0.58491,-0.009 -1.0256,0.0944 -1.32098,0.31002 -0.29661,0.21678 -0.447,0.48888 -0.45229,0.8152 -0.005,0.32988 0.13518,0.60558 0.42238,0.82578 0.28599,0.22151 0.73039,0.33701 1.33191,0.3466 0.5885,0.009 1.02679,-0.0883 1.31138,-0.29481 0.28582,-0.20627 0.43131,-0.47967 0.43692,-0.8213 0.005,-0.34058 -0.13251,-0.61969 -0.41261,-0.83859 -0.28141,-0.21901 -0.71981,-0.33331 -1.31671,-0.3429 z m -2.63239,3.5681 5.06289,0.59439 -0.15699,1.33752 c -0.0585,0.49859 -0.1216,0.82219 -0.18789,0.96979 -0.1065,0.23541 -0.29743,0.41709 -0.57192,0.54621 -0.2733,0.12929 -0.6126,0.17011 -1.01558,0.1229 -0.36541,-0.0429 -0.66491,-0.14809 -0.8963,-0.31411 -0.23142,-0.16598 -0.38449,-0.35832 -0.46041,-0.57609 -0.0761,-0.21769 -0.0851,-0.5782 -0.0261,-1.0814 l 0.0642,-0.54659 -1.9092,-0.22412 z m 4.11,1.32239 -1.4424,-0.1693 -0.0543,0.46221 c -0.0363,0.30899 -0.0388,0.52352 -0.008,0.63969 0.0305,0.11631 0.0988,0.21692 0.20472,0.30173 0.10721,0.0849 0.24321,0.13649 0.40951,0.156 0.16848,0.0198 0.31527,2.8e-4 0.43949,-0.0599 0.1241,-0.0602 0.21261,-0.14231 0.26419,-0.24543 0.0514,-0.10319 0.0983,-0.329 0.13942,-0.67889 z m -4.52159,2.2951 5.0268,0.8473 -0.20782,1.23282 -3.5608,0.1645 3.3117,1.31349 -0.20941,1.24199 -5.0268,-0.8473 0.12923,-0.7669 3.96441,0.6683 -3.82711,-1.48269 0.13299,-0.78899 4.10189,-0.14742 -3.96441,-0.6682 z m -1.7859,8.17273 0.2389,-0.87531 1.20608,-0.0384 0.4392,-1.60958 -1.02238,-0.63441 0.23449,-0.8594 4.49319,2.89828 -0.23509,0.86163 z m 2.34809,-0.95063 1.97721,-0.0564 -1.6776,-1.04171 z m -2.7111,2.05892 4.02689,1.31529 0.38191,-1.16932 0.81901,0.26752 -1.02302,3.13171 -0.8189,-0.26762 0.38192,-1.16928 -4.02682,-1.3154 z m -0.78641,2.26388 4.76232,1.81842 -0.28501,0.74638 -3.1738,-1.2119 2.57789,2.7728 -0.3018,0.79032 -4.7625,-1.81842 0.28501,-0.74638 3.10511,1.18569 -2.51072,-2.74221 z m -1.49888,3.67912 4.56328,2.2721 -0.37179,0.74679 -1.94391,-0.96792 c -0.0622,0.17833 -0.0637,0.32241 -0.003,0.43272 0.0604,0.11039 0.24028,0.3053 0.54049,0.58639 0.30061,0.28 0.5031,0.51759 0.6072,0.71042 0.10379,0.19378 0.1427,0.36319 0.1142,0.50829 -0.0285,0.14509 -0.11328,0.37659 -0.2534,0.69511 l -0.68189,-0.33951 0.052,-0.10439 c 0.1045,-0.2099 0.12489,-0.3761 0.0624,-0.5007 -0.0631,-0.12351 -0.21442,-0.29619 -0.456,-0.51922 -0.24102,-0.22129 -0.39331,-0.3841 -0.45791,-0.48598 -0.064,-0.10302 -0.1108,-0.24081 -0.1386,-0.4112 -0.15092,0.1301 -0.32921,0.20849 -0.53471,0.2352 -0.20549,0.0267 -0.52511,0.0243 -0.95909,-0.009 l -1.5003,-0.11522 0.43688,-0.8775 1.40342,0.1367 c 0.35839,0.0363 0.61599,0.0434 0.77689,0.0209 0.15949,-0.022 0.28201,-0.11363 0.3671,-0.274 l -1.99478,-0.99332 0.37179,-0.74668 z m -1.4889,2.96308 4.44838,2.4898 -0.3901,0.69713 -2.9646,-1.65922 2.14852,3.11721 -0.4131,0.73819 -4.44849,-2.4897 0.39017,-0.69708 2.9004,1.62327 -2.08669,-3.07718 z"
             style="fill:#fefefe;fill-opacity:1;fill-rule:nonzero;stroke:none;stroke-width:0.352778"
             id="path467" />
          <g
             id="g471"
             transform="matrix(0.35277779,0,0,-0.35277777,62.000004,297.00001)">
            <g
               id="g473"
               clip-path="url(#clipPath477)">
              <g
                 id="g479">
                <g
                   id="g481">
                  <text
                     xml:space="preserve"
                     transform="matrix(1,0,0,-1,187.738,328.1261)"
                     style="font-variant:normal;font-weight:bold;font-size:30.0711px;font-family:Arial;-inkscape-font-specification:ArialNarrow-Bold;writing-mode:lr-tb;fill:#56a1af;fill-opacity:1;fill-rule:nonzero;stroke:none"
                     id="text485"><tspan
                       x="0 13.712423 27.424847 41.137272 54.849693 67.211113 79.57093 91.930748 105.64317 119.3556 126.21181 139.92424 146.78044 159.14058"
                       y="0"
                       sodipodi:role="line"
                       id="tspan483">001011110 0 11</tspan></text>
                  <text
                     xml:space="preserve"
                     transform="matrix(1,0,0,-1,242.5433,359.5303)"
                     style="font-variant:normal;font-weight:bold;font-size:30.0711px;font-family:Arial;-inkscape-font-specification:ArialNarrow-Bold;writing-mode:lr-tb;fill:#56a1af;fill-opacity:1;fill-rule:nonzero;stroke:none"
                     id="text489"><tspan
                       x="0 13.712423 20.568636 34.281059 47.993484 61.705906 75.418327"
                       y="0"
                       sodipodi:role="line"
                       id="tspan487">0 10010</tspan></text>
                  <text
                     xml:space="preserve"
                     transform="matrix(1,0,0,-1,192.6969,291.0266)"
                     style="font-variant:normal;font-weight:bold;font-size:30.0711px;font-family:Arial;-inkscape-font-specification:ArialNarrow-Bold;writing-mode:lr-tb;fill:#56a1af;fill-opacity:1;fill-rule:nonzero;stroke:none"
                     id="text493"><tspan
                       x="0 13.712423 20.568636 34.281059"
                       y="0"
                       sodipodi:role="line"
                       id="tspan491">0 00</tspan></text>
                  <text
                     xml:space="preserve"
                     transform="matrix(1,0,0,-1,371.3326,307.5525)"
                     style="font-variant:normal;font-weight:bold;font-size:30.0711px;font-family:Arial;-inkscape-font-specification:ArialNarrow-Bold;writing-mode:lr-tb;fill:#56a1af;fill-opacity:1;fill-rule:nonzero;stroke:none"
                     id="text497"><tspan
                       x="0 13.712423 20.568636 34.281059 41.137272"
                       y="0"
                       sodipodi:role="line"
                       id="tspan495">0 0 1</tspan></text>
                  <text
                     xml:space="preserve"
                     transform="matrix(1,0,0,-1,168.9826,256.6397)"
                     style="font-variant:normal;font-weight:bold;font-size:30.0711px;font-family:Arial;-inkscape-font-specification:ArialNarrow-Bold;writing-mode:lr-tb;fill:#56a1af;fill-opacity:1;fill-rule:nonzero;stroke:none"
                     id="text501"><tspan
                       x="0 13.712423 27.424847"
                       y="0"
                       sodipodi:role="line"
                       id="tspan499">000</tspan></text>
                  <text
                     xml:space="preserve"
                     transform="matrix(1,0,0,-1,144.7257,229.9842)"
                     style="font-variant:normal;font-weight:bold;font-size:30.0711px;font-family:Arial;-inkscape-font-specification:ArialNarrow-Bold;writing-mode:lr-tb;fill:#56a1af;fill-opacity:1;fill-rule:nonzero;stroke:none"
                     id="text505"><tspan
                       x="0 13.712423 27.424847 41.137272 53.498505 65.858322"
                       y="0"
                       sodipodi:role="line"
                       id="tspan503">010111</tspan></text>
                  <text
                     xml:space="preserve"
                     transform="matrix(1,0,0,-1,160.4937,188.4019)"
                     style="font-variant:normal;font-weight:bold;font-size:30.0711px;font-family:Arial;-inkscape-font-specification:ArialNarrow-Bold;writing-mode:lr-tb;fill:#56a1af;fill-opacity:1;fill-rule:nonzero;stroke:none"
                     id="text509"><tspan
                       x="0 13.712423 27.424847 41.137272 54.849693"
                       y="0"
                       sodipodi:role="line"
                       id="tspan507">00010</tspan></text>
                  <text
                     xml:space="preserve"
                     transform="matrix(1,0,0,-1,178.9926,152.151)"
                     style="font-variant:normal;font-weight:bold;font-size:30.0711px;font-family:Arial;-inkscape-font-specification:ArialNarrow-Bold;writing-mode:lr-tb;fill:#56a1af;fill-opacity:1;fill-rule:nonzero;stroke:none"
                     id="text513"><tspan
                       x="0 13.712423"
                       y="0"
                       sodipodi:role="line"
                       id="tspan511">00</tspan></text>
                  <text
                     xml:space="preserve"
                     transform="matrix(1,0,0,-1,397.3221,202.3506)"
                     style="font-variant:normal;font-weight:bold;font-size:30.0711px;font-family:Arial;-inkscape-font-specification:ArialNarrow-Bold;writing-mode:lr-tb;fill:#56a1af;fill-opacity:1;fill-rule:nonzero;stroke:none"
                     id="text517"><tspan
                       x="0 12.359817 24.719633 37.079453"
                       y="0"
                       sodipodi:role="line"
                       id="tspan515">1111</tspan></text>
                  <text
                     xml:space="preserve"
                     transform="matrix(1,0,0,-1,393.2748,234.3362)"
                     style="font-variant:normal;font-weight:bold;font-size:30.0711px;font-family:Arial;-inkscape-font-specification:ArialNarrow-Bold;writing-mode:lr-tb;fill:#56a1af;fill-opacity:1;fill-rule:nonzero;stroke:none"
                     id="text521"><tspan
                       x="0 13.712423 20.568636"
                       y="0"
                       sodipodi:role="line"
                       id="tspan519">1 0</tspan></text>
                  <text
                     xml:space="preserve"
                     transform="matrix(1,0,0,-1,390.5354,270.5014)"
                     style="font-variant:normal;font-weight:bold;font-size:30.0711px;font-family:Arial;-inkscape-font-specification:ArialNarrow-Bold;writing-mode:lr-tb;fill:#56a1af;fill-opacity:1;fill-rule:nonzero;stroke:none"
                     id="text525"><tspan
                       x="0 12.359817 24.719633 37.079453"
                       y="0"
                       sodipodi:role="line"
                       id="tspan523">1111</tspan></text>
                </g>
              </g>
            </g>
          </g>
          <path
             d="m 111.33111,252.3738 17.86661,-8.63547 2.2781,5.49067 -14.93362,14.16289 z"
             style="fill:#fefefe;fill-opacity:1;fill-rule:evenodd;stroke:#fefefe;stroke-width:0.19999;stroke-linecap:butt;stroke-linejoin:miter;stroke-miterlimit:22.9256;stroke-dasharray:none;stroke-opacity:1"
             id="path527" />
          <path
             d="m 224.03832,252.23032 -17.86671,-8.6355 -2.27799,5.4907 14.93357,14.1629 z"
             style="fill:#fefefe;fill-opacity:1;fill-rule:evenodd;stroke:#fefefe;stroke-width:0.19999;stroke-linecap:butt;stroke-linejoin:miter;stroke-miterlimit:22.9256;stroke-dasharray:none;stroke-opacity:1"
             id="path529" />
          <path
             d="m 126.736,262.25673 -0.63991,-0.54441 3.30352,-3.8826 2.54321,2.16401 -3.30351,3.88249 -0.63991,-0.54451 2.74532,-3.2264 -1.26351,-1.07498 z m 4.38492,0.37436 c 0.3447,-0.49896 0.70288,-0.85869 1.0735,-1.07999 0.3707,-0.2213 0.7305,-0.32889 1.07809,-0.32247 0.34749,0.006 0.69109,0.127 1.0299,0.36099 0.49199,0.33998 0.76281,0.80398 0.81259,1.39358 0.0498,0.58971 -0.1639,1.23102 -0.6435,1.92511 -0.48419,0.701 -1.02729,1.1364 -1.62789,1.30418 -0.5278,0.15022 -1.03999,0.0546 -1.533,-0.28606 -0.49802,-0.34403 -0.7711,-0.78793 -0.82,-1.33082 -0.0555,-0.6211 0.1548,-1.27632 0.63031,-1.96452 z m 0.7342,0.46542 c -0.33253,0.4813 -0.49032,0.9059 -0.4736,1.27219 0.0169,0.36802 0.16139,0.6452 0.4318,0.83203 0.2734,0.18887 0.58219,0.22627 0.92607,0.11049 0.34421,-0.11413 0.68771,-0.4191 1.02962,-0.91423 0.33461,-0.48418 0.4959,-0.9035 0.48091,-1.25557 -0.0141,-0.35309 -0.16231,-0.6271 -0.44552,-0.82271 -0.28209,-0.19491 -0.59249,-0.23629 -0.93141,-0.1257 -0.33948,0.11152 -0.67857,0.4124 -1.01787,0.9035 z m 4.3863,5.87368 -0.736,-0.40537 2.4595,-4.46522 2.92488,1.611 -2.4595,4.46521 -0.73589,-0.4053 2.04381,-3.71059 -1.45312,-0.80031 z m 3.53917,1.87033 2.23062,-4.58382 1.21958,0.59351 c 0.45463,0.22119 0.7414,0.38851 0.85983,0.5002 0.18877,0.179 0.29859,0.41981 0.33098,0.722 0.0329,0.30099 -0.0398,0.63511 -0.21739,1.00009 -0.161,0.33073 -0.35951,0.57852 -0.5934,0.74193 -0.23379,0.1633 -0.46701,0.24377 -0.699,0.2431 -0.23181,-7.1e-4 -0.57749,-0.11212 -1.03632,-0.33543 l -0.4983,-0.2425 -0.84119,1.72851 z m 2.60911,-3.44149 -0.63549,1.30598 0.42139,0.205 c 0.2818,0.13719 0.48472,0.21089 0.6053,0.2207 0.12061,0.01 0.23862,-0.0211 0.35412,-0.0929 0.11588,-0.073 0.20969,-0.18433 0.28299,-0.33482 0.0742,-0.15258 0.1039,-0.29778 0.0876,-0.43508 -0.0163,-0.1372 -0.0653,-0.24811 -0.1463,-0.33112 -0.0811,-0.083 -0.28032,-0.20239 -0.5993,-0.35757 z m 2.2218,2.89549 c 0.20902,-0.56931 0.4658,-1.00721 0.7693,-1.3141 0.3036,-0.30702 0.62512,-0.50122 0.96312,-0.58201 0.3381,-0.0806 0.7009,-0.0498 1.08747,0.092 0.56152,0.20609 0.93973,0.58758 1.13542,1.1461 0.19568,0.55848 0.14919,1.23278 -0.1415,2.02487 -0.29359,0.79982 -0.7106,1.35721 -1.25,1.66981 -0.4735,0.27753 -0.99332,0.31302 -1.55589,0.1065 -0.56822,-0.2086 -0.94361,-0.57009 -1.1267,-1.08349 -0.2092,-0.58741 -0.16941,-1.27441 0.11878,-2.05969 z m 0.8273,0.26698 c -0.20148,0.5491 -0.24808,0.99981 -0.14041,1.35022 0.10851,0.35208 0.31771,0.58438 0.62632,0.69759 0.31189,0.11451 0.62029,0.0734 0.92421,-0.12471 0.3048,-0.1966 0.56099,-0.57767 0.76828,-1.14258 0.20281,-0.55252 0.2541,-0.99882 0.15162,-1.336 -0.10213,-0.33831 -0.31411,-0.56653 -0.63722,-0.68509 -0.32191,-0.11822 -0.63271,-0.0806 -0.9332,0.11119 -0.30089,0.1929 -0.5539,0.569 -0.7596,1.12938 z m 3.36991,3.86641 1.50089,-4.82709 2.8079,0.87298 -0.2558,0.82272 -2.00558,-0.62372 -1.24513,4.00453 z m 3.98159,1.1133 1.0203,-4.9947 1.32891,0.2715 c 0.4952,0.10121 0.8146,0.1918 0.9572,0.27061 0.22729,0.1264 0.39359,0.33229 0.5002,0.61691 0.10668,0.28349 0.11931,0.62508 0.0381,1.02277 -0.0736,0.36033 -0.20419,0.64982 -0.3901,0.8661 -0.18592,0.2164 -0.39169,0.35239 -0.61659,0.4094 -0.22472,0.0571 -0.5872,0.0351 -1.08712,-0.067 l -0.54299,-0.11091 -0.38471,1.88341 z m 1.671,-3.9824 -0.29069,1.423 0.45928,0.0938 c 0.30692,0.0627 0.52183,0.0837 0.6411,0.0632 0.11921,-0.0205 0.22582,-0.0799 0.31983,-0.17823 0.0942,-0.0995 0.15727,-0.23061 0.19079,-0.39458 0.0339,-0.16623 0.0266,-0.31422 -0.0233,-0.44319 -0.05,-0.1288 -0.12502,-0.22412 -0.22412,-0.28431 -0.0992,-0.0602 -0.32191,-0.12633 -0.6695,-0.1973 z m 6.50141,5.40321 -0.90311,-0.13822 -0.17858,-1.19419 -1.66091,-0.25431 -0.5158,1.08789 -0.88681,-0.13568 2.37712,-4.79329 0.88918,0.1361 z m -1.2235,-2.22571 -0.286,-1.95841 -0.84709,1.78502 z m 2.30039,2.24571 0.27312,-5.0904 1.2572,0.0675 0.57167,3.5196 0.93553,-3.43871 1.26658,0.0679 -0.27298,5.09041 -0.78211,-0.042 0.21541,-4.01447 -1.04602,3.96998 -0.80458,-0.0431 -0.61641,-4.0592 -0.21541,4.0145 z m 5.4978,0.2014 -0.2224,-5.09291 1.2579,-0.055 0.9107,3.4476 0.59732,-3.51339 1.26718,-0.0554 0.22239,5.09302 -0.78239,0.0341 -0.1754,-4.01648 -0.6556,4.05278 -0.80501,0.0352 -1.00767,-3.98011 0.17547,4.01641 z m 5.50961,-0.29051 -0.7112,-5.0479 0.79671,-0.11228 0.47399,3.36408 1.19218,-3.59879 0.8437,-0.11892 0.7112,5.0479 -0.79667,0.11232 -0.46373,-3.29131 -1.19768,3.52531 z m 4.78289,-0.7173 -0.95208,-5.008 1.33248,-0.2534 c 0.4965,-0.0944 0.82652,-0.1318 0.9882,-0.11299 0.2583,0.0306 0.49029,0.15801 0.69702,0.38089 0.2063,0.22162 0.3477,0.53291 0.42347,0.93162 0.0687,0.36138 0.0577,0.67878 -0.0321,0.9495 -0.0898,0.27068 -0.2286,0.47469 -0.41497,0.61277 -0.1863,0.13811 -0.53001,0.25541 -1.03121,0.3507 l -0.54451,0.1035 0.35909,1.88849 z m 0.0342,-4.3186 0.27128,1.42681 0.46042,-0.0875 c 0.30779,-0.0586 0.51459,-0.12079 0.61707,-0.18499 0.10252,-0.0642 0.17862,-0.1596 0.22822,-0.28618 0.0494,-0.12781 0.058,-0.27312 0.0268,-0.43751 -0.0317,-0.16669 -0.0947,-0.30088 -0.1898,-0.40111 -0.0952,-0.10029 -0.2008,-0.15998 -0.31531,-0.17808 -0.11462,-0.018 -0.34569,0.005 -0.6942,0.0717 z m 3.53039,1.01021 c -0.16951,-0.58222 -0.22261,-1.08712 -0.1603,-1.51429 0.0621,-0.42722 0.20581,-0.77432 0.43,-1.03982 0.22429,-0.2655 0.5346,-0.456 0.92999,-0.57122 0.57422,-0.16718 1.105,-0.0844 1.59392,0.24903 0.48877,0.33348 0.8515,0.90389 1.0874,1.71401 0.2382,0.81798 0.23319,1.51408 -0.0155,2.0858 -0.21661,0.50419 -0.61398,0.84126 -1.18929,1.00876 -0.58109,0.16923 -1.0978,0.10093 -1.54989,-0.2038 -0.51682,-0.34868 -0.89242,-0.92537 -1.12631,-1.72847 z m 0.8244,-0.2759 c 0.16359,0.56158 0.39339,0.952 0.6881,1.1702 0.29608,0.21911 0.6024,0.2819 0.91789,0.19 0.31912,-0.0929 0.54292,-0.30893 0.6701,-0.64872 0.12869,-0.33909 0.10869,-0.79788 -0.0595,-1.37548 -0.1645,-0.56512 -0.38802,-0.9549 -0.67063,-1.16551 -0.28278,-0.21181 -0.58889,-0.2698 -0.91937,-0.1735 -0.32921,0.0959 -0.55711,0.31048 -0.6852,0.64319 -0.12771,0.3338 -0.10831,0.78669 0.0586,1.35982 z m 3.12879,-3.56271 1.5579,-0.62011 c 0.42439,-0.16887 0.73851,-0.2492 0.9428,-0.23989 0.2038,0.008 0.40372,0.0871 0.59979,0.2364 0.19721,0.14891 0.34491,0.34681 0.44362,0.59489 0.0909,0.22821 0.12231,0.45452 0.0951,0.6786 -0.0276,0.2255 -0.10481,0.41342 -0.23072,0.56561 0.26071,-0.009 0.49502,0.0597 0.70313,0.2068 0.20789,0.14711 0.36858,0.36159 0.48178,0.646 0.13741,0.34509 0.1705,0.66912 0.0984,0.9724 -0.0706,0.30399 -0.20849,0.52871 -0.41208,0.6749 -0.14231,0.10132 -0.49942,0.26649 -1.07272,0.49459 l -1.3219,0.52621 z m 1.09389,0.4765 0.43702,1.09809 0.52049,-0.20708 c 0.31189,-0.12421 0.50271,-0.20662 0.57221,-0.24691 0.12608,-0.0745 0.2081,-0.1736 0.24768,-0.29531 0.0396,-0.12178 0.0275,-0.2613 -0.0352,-0.41899 -0.0562,-0.14111 -0.13222,-0.2424 -0.2286,-0.30491 -0.0969,-0.0636 -0.19332,-0.0879 -0.2903,-0.0747 -0.0955,0.0137 -0.35232,0.10308 -0.768,0.2686 z m 0.75043,1.88532 0.50278,1.26347 0.7299,-0.29058 c 0.31972,-0.12722 0.51819,-0.22539 0.59651,-0.29482 0.0768,-0.0702 0.127,-0.16549 0.14968,-0.28829 0.0231,-0.1215 0.004,-0.25841 -0.0553,-0.40831 -0.0618,-0.1555 -0.14541,-0.26909 -0.25139,-0.34307 -0.10572,-0.0729 -0.22041,-0.1077 -0.34452,-0.10181 -0.12411,0.006 -0.35419,0.0759 -0.69158,0.21018 z m 7.96498,-1.00673 -0.83188,0.378 -0.80239,-0.90229 -1.52961,0.69521 0.1628,1.19289 -0.81671,0.37119 -0.63031,-5.31297 0.8189,-0.37222 z m -2.2413,-1.19468 -1.31029,-1.48339 0.2667,1.95767 z m 3.18573,0.65359 -2.54424,-4.41752 0.72803,-0.41927 1.0021,1.7399 1.4375,-0.8279 -1.002,-1.7399 0.728,-0.41931 2.54419,4.41752 -0.72799,0.41927 -1.11231,-1.9311 -1.43749,0.8279 1.1122,1.9311 z m 4.20867,-2.4203 -2.95899,-4.15099 0.65521,-0.46712 1.97199,2.76642 -0.60191,-3.74312 0.69381,-0.49459 2.95899,4.1511 -0.6551,0.46701 -1.92927,-2.70652 0.56299,3.68039 z m 3.2791,-5.00119 1.3098,1.6601 -0.65948,0.52039 -3.15782,-4.00199 0.65962,-0.52041 1.31427,1.66571 0.53661,-0.42341 c -0.39239,-0.59891 -0.57668,-1.1503 -0.5503,-1.65329 0.0273,-0.5038 0.25341,-0.924 0.68101,-1.26139 0.4639,-0.36612 0.9713,-0.47022 1.52241,-0.3139 0.551,0.15617 1.08239,0.55767 1.59399,1.20607 0.51149,0.6483 0.7808,1.2596 0.80702,1.83311 0.0262,0.5734 -0.18842,1.03889 -0.64404,1.39841 -0.2794,0.22048 -0.55499,0.35778 -0.82479,0.41049 -0.2691,0.0536 -0.59778,-0.003 -0.98598,-0.16531 -0.3888,-0.1633 -0.7444,-0.42238 -1.06571,-0.77788 z m 0.6483,-3.30472 c -0.53661,0.4233 -0.42929,1.11101 0.32121,2.0622 0.33951,0.43043 0.6761,0.70743 1.00951,0.83132 0.33517,0.124 0.63048,0.0844 0.8867,-0.11772 0.54399,-0.42919 0.4353,-1.12638 -0.3255,-2.0906 -0.33952,-0.43028 -0.67413,-0.70298 -1.0051,-0.81978 -0.33101,-0.11501 -0.62601,-0.0713 -0.88682,0.13458"
             style="fill:#fefefe;fill-opacity:1;fill-rule:nonzero;stroke:none;stroke-width:0.352778"
             id="path547" />
        </g>
        <g
           id="g1048"
           transform="matrix(0.29283981,0,0,-0.29283979,115.67945,165.82957)"
           style="display:inline">
          <path
             id="rect1493-7-5"
             style="fill:url(#radialGradient1606);fill-opacity:1;stroke:#3aaabe;stroke-width:5;stroke-miterlimit:4;stroke-dasharray:none;stroke-opacity:1"
             d="M 87.221595,-118.21678 H 267.72844 c 1.662,0 3,-1.338 3,-3 v -113.00684 c 0,-1.662 -1.338,-3 -3,-3 H 87.221595 c -1.662,0 -3,1.338 -3,3 v 113.00684 c 0,1.662 1.338,3 3,3 z"
             sodipodi:nodetypes="sssssssss" />
          <path
             id="rect1493"
             style="fill:url(#radialGradient910);fill-opacity:1;stroke:#6f7073;stroke-width:1.125;stroke-miterlimit:4;stroke-dasharray:none;stroke-opacity:1"
             d="m 78.974535,-106.96824 c -3.32499,0 -6.00147,-2.66024 -6.00147,-5.96485 V -248.47216 H 281.97698 v 135.53907 c 0,3.30461 -2.67649,5.96485 -6.00147,5.96485 z m 8.24706,-11.24854 H 267.72844 c 1.662,0 3,-1.338 3,-3 v -113.00684 c 0,-1.662 -1.338,-3 -3,-3 H 87.221595 c -1.662,0 -3,1.338 -3,3 v 113.00684 c 0,1.662 1.338,3 3,3 z" />
          <ellipse
             style="fill:#000000;fill-opacity:1;stroke:none;stroke-width:2.26239;stroke-miterlimit:4;stroke-dasharray:none;stroke-opacity:1"
             id="path1608"
             cx="189.04106"
             cy="150.13898"
             transform="matrix(0.99852491,-0.0542955,-0.0531196,-0.99858816,0,0)"
             rx="18.581007"
             ry="32.135258" />
          <ellipse
             style="fill:#ffffff;fill-opacity:1;stroke:#000000;stroke-width:1.5;stroke-miterlimit:4;stroke-dasharray:none;stroke-opacity:1"
             id="path1608-3"
             cx="192.69041"
             cy="148.65924"
             transform="matrix(0.99719348,-0.07486763,-0.07370954,-0.99727975,0,0)"
             rx="18.092405"
             ry="31.059376" />
          <path
             id="path1638"
             style="fill:url(#radialGradient1654);fill-opacity:1;stroke:none;stroke-width:0.375;stroke-miterlimit:4;stroke-dasharray:none;stroke-opacity:1"
             d="m 181.53467,-147.39194 c 0,-0.99514 -0.0814,-1.958 -0.23348,-2.87043 -2.3773,1.25433 -3.33874,2.0779 -3.33874,2.0779 0,0 0.72558,-1.44945 2.49749,-5.13023 -1.11514,-2.77372 -2.99173,-4.59446 -5.11874,-4.59446 -3.42056,0 -6.19347,4.70872 -6.19347,10.51722 1e-5,5.80849 2.77292,10.51721 6.19347,10.51721 3.42056,0 6.19347,-4.70872 6.19347,-10.51721 z"
             sodipodi:nodetypes="scccssss" />
          <ellipse
             style="fill:#ffffff;fill-opacity:1;stroke:none;stroke-width:2.09676;stroke-miterlimit:4;stroke-dasharray:none;stroke-opacity:0"
             id="path1666"
             cx="176.3559"
             cy="141.39781"
             transform="scale(1,-1)"
             rx="2.651161"
             ry="2.9162769" />
          <ellipse
             style="fill:#000000;fill-opacity:1;stroke:#000000;stroke-width:0.646446;stroke-miterlimit:4;stroke-dasharray:none;stroke-opacity:1"
             id="path1608-3-8-0-4"
             cx="181.49811"
             cy="193.86621"
             transform="matrix(0.97984749,0.1997471,0.19205119,-0.98138491,0,0)"
             rx="14.67803"
             ry="26.666327" />
          <ellipse
             style="fill:#ffffff;fill-opacity:1;stroke:#000000;stroke-width:1.50006;stroke-miterlimit:4;stroke-dasharray:none;stroke-opacity:1"
             id="path1608-3-8-0"
             cx="179.67612"
             cy="194.20999"
             transform="matrix(0.98184416,0.18968934,0.20222389,-0.97933932,0,0)"
             rx="15.45177"
             ry="26.714209" />
          <path
             id="path1638-2"
             style="fill:url(#radialGradient1654-9);fill-opacity:1;stroke:none;stroke-width:0.315607;stroke-miterlimit:4;stroke-dasharray:none;stroke-opacity:1"
             d="m 210.88237,-147.02843 c 0,-0.83753 -0.0685,-1.64789 -0.19651,-2.41581 -2.00078,1.05567 -2.80995,1.7488 -2.80995,1.7488 0,0 0.61066,-1.21988 2.10194,-4.3177 -0.93853,-2.33442 -2.5179,-3.86679 -4.30803,-3.86679 -2.87881,0 -5.21255,3.96295 -5.21255,8.8515 0,4.88854 2.33374,8.85149 5.21255,8.85149 2.87881,0 5.21255,-3.96295 5.21255,-8.85149 z"
             sodipodi:nodetypes="scccssss" />
          <ellipse
             style="fill:#ffffff;fill-opacity:1;stroke:none;stroke-width:1.76467;stroke-miterlimit:4;stroke-dasharray:none;stroke-opacity:0"
             id="path1666-7"
             cx="206.5238"
             cy="141.98366"
             transform="scale(1,-1)"
             rx="2.2312696"
             ry="2.4543965" />
          <path
             id="path1846"
             style="fill:#000000;stroke:#000000;stroke-width:0.75px;stroke-linecap:butt;stroke-linejoin:miter;stroke-opacity:1"
             d="m 142.40733,-192.21304 c -0.28965,-4.8548 -1.83483,-8.94369 -2.22243,-21.8851 -0.3876,-12.94141 1.74626,-18.49738 6.47051,-23.06019 4.08513,-3.80624 11.90149,-8.46033 23.53631,-7.919 8.06498,0.42593 18.50712,8.50308 25.32608,13.50116 6.81896,4.99808 26.54649,18.91783 31.11157,22.75032 -9.32479,-6.68263 -21.60858,-13.88079 -29.5592,-16.01845 -7.95062,-2.13766 -25.65715,-1.81808 -32.54205,1.55727 -12.917,6.2506 -15.71793,11.98784 -18.19552,17.50566 -2.47759,5.51781 -3.10463,12.45397 -2.39611,15.96029 0.70851,3.50631 1.58843,3.77773 0.36817,4.42816 -1.01911,0.54322 -1.53283,0.76282 -2.53103,-0.0732 -0.99821,-0.83601 0.92334,-1.89212 0.6337,-6.74693 z"
             sodipodi:nodetypes="zzcczczczzszz" />
          <path
             style="fill:#000000;stroke:#000000;stroke-width:0.75px;stroke-linecap:butt;stroke-linejoin:miter;stroke-opacity:1"
             d="m 134.8152,-180.74499 c 0,0 2.71779,3.55298 8.25646,3.03298 4.89864,-0.45991 7.75097,-4.71798 7.75097,-4.71798 0,0 -2.35899,6.90847 -7.41397,6.90847 -5.05498,0 -8.59346,-5.22347 -8.59346,-5.22347 z"
             id="path1834"
             sodipodi:nodetypes="cscsc" />
          <path
             id="path1841"
             style="fill:#ffffff;stroke:none;stroke-width:0.75px;stroke-linecap:butt;stroke-linejoin:miter;stroke-opacity:1"
             d="m 146.06084,-209.18818 2.00123,-10.00613 c 4.13679,-4.57768 13.99027,-12.76963 30.85246,-12.76963 10.18946,0.20606 18.20525,1.1656 28.47852,10.40132 -10.32047,-3.91224 -16.14066,-5.16821 -23.60905,-4.76964 -7.90578,0.0117 -15.29189,0.0956 -22.18021,4.30855 -5.60939,3.13826 -11.12612,8.50446 -15.06011,13.53529 -0.3441,0.0931 -0.31966,-0.52637 -0.48284,-0.69976 z"
             sodipodi:nodetypes="cccccccc" />
          <path
             style="fill:#e61d23;fill-opacity:1;stroke:none;stroke-width:0.75px;stroke-linecap:butt;stroke-linejoin:miter;stroke-opacity:1"
             d="m 148.93877,-226.63549 c 0,0 -1.24267,4.67153 -4.30414,4.67153 -2.97601,0 -3.08183,-2.51356 -3.05952,-3.16878 0.0427,-1.25291 0.91788,-4.65202 2.31644,-6.2719 1.33135,-1.54203 4.01899,-4.35629 6.68102,-4.24703 3.38624,0.13899 4.89505,4.67052 2.92017,9.20435 -1.30908,3.00531 -5.68932,4.32622 -5.68932,4.32622 0,0 0.84499,-1.68477 1.06352,-2.55892 0.21854,-0.87415 0.0718,-1.95547 0.0718,-1.95547 z"
             id="path1850"
             sodipodi:nodetypes="cssssscscc" />
          <path
             id="path1838"
             style="fill:none;stroke:#000000;stroke-width:1.5;stroke-linecap:butt;stroke-linejoin:miter;stroke-miterlimit:4;stroke-dasharray:none;stroke-opacity:1"
             d="m 142.40733,-192.21304 c -0.28965,-4.8548 -1.83483,-8.94369 -2.22243,-21.8851 -0.3876,-12.94141 1.74626,-18.49738 6.47051,-23.06019 4.08513,-3.80624 11.90149,-8.46033 23.53631,-7.919 8.06498,0.42593 18.50712,8.50308 25.32608,13.50116 6.81896,4.99808 26.54649,18.91783 31.11157,22.75032 -9.32479,-6.68263 -21.60858,-13.88079 -29.5592,-16.01845 -7.95062,-2.13766 -25.65715,-1.81808 -32.54205,1.55727 -12.917,6.2506 -15.71793,11.98784 -18.19552,17.50566 -2.47759,5.51781 -3.10463,12.45397 -2.39611,15.96029 0.70851,3.50631 1.58843,3.77773 0.36817,4.42816 -1.01911,0.54322 -1.53283,0.76282 -2.53103,-0.0732 -0.99821,-0.83601 0.92334,-1.89212 0.6337,-6.74693 z"
             sodipodi:nodetypes="zzcczczczzszz" />
          <path
             style="fill:#000000;stroke:none;stroke-width:0.75px;stroke-linecap:butt;stroke-linejoin:miter;stroke-opacity:1"
             d="m 134.26897,-92.119463 c 0,0 3.15658,15.01328 15.35938,15.14984 10.55423,0.11811 21.43675,-10.96922 21.43675,-10.96922 0,0 -6.92472,14.26718 -22.09634,14.13787 -5.17732,-0.0441 -7.99408,-1.70637 -10.77041,-5.42278 -3.8085,-5.09809 -3.92938,-12.89571 -3.92938,-12.89571 z"
             id="path887"
             sodipodi:nodetypes="cscssc" />
          <path
             style="fill:#000000;stroke:none;stroke-width:0.75px;stroke-linecap:butt;stroke-linejoin:miter;stroke-opacity:1"
             d="m 206.664,-96.063833 c 0,0 3.46475,6.66298 13.859,5.33038 10.39424,-1.33259 14.39203,-10.927277 14.39203,-10.927277 0,0 -3.19823,13.721877 -14.12551,13.721877 -10.92729,0 -14.12552,-8.12498 -14.12552,-8.12498 z"
             id="path889" />
          <path
             style="opacity:1;fill:#71736f;fill-opacity:1;stroke:none;stroke-width:0.75px;stroke-linecap:butt;stroke-linejoin:miter;stroke-opacity:1"
             d="m 72.475395,-249.43873 c 0,0 -70.1420199,-43.23844 -72.40880989,-51.44745 -0.954,-3.45485 8.65879999,-4.11626 8.65879999,-4.11626 H 346.2254 c 0,0 10.20099,-0.0446 9.08729,4.36782 -2.26297,8.96593 -72.83729,51.19589 -72.83729,51.19589 H 72.475395"
             id="path963"
             sodipodi:nodetypes="csccscc" />
          <path
             style="opacity:1;fill:url(#linearGradient950);fill-opacity:1;stroke:#898a8d;stroke-width:1.125;stroke-linecap:butt;stroke-linejoin:bevel;stroke-miterlimit:4;stroke-dasharray:none;stroke-opacity:1"
             d="m 72.475395,-249.43873 -63.7500099,-36.057 H 346.2254 l -64.24843,37.02356 z"
             id="path920" />
          <path
             id="rect952"
             style="fill:url(#linearGradient961);fill-opacity:1;stroke:#898a8d;stroke-width:1.125;stroke-miterlimit:4;stroke-dasharray:none;stroke-opacity:1"
             d="m 346.2254,-285.49573 v -10.70797 c 0,-2.0775 -1.6725,-3.75 -3.75,-3.75 H 12.475395 c -2.0775,0 -3.7499999,1.6725 -3.7499999,3.75 v 10.70797 c 63.7499999,-0.05 273.7500049,-0.05 337.5000049,0 z"
             sodipodi:nodetypes="csssscc" />
          <path
             style="font-variation-settings:normal;opacity:1;vector-effect:none;fill:none;fill-opacity:1;stroke:#898a8d;stroke-width:1.125;stroke-linecap:butt;stroke-linejoin:miter;stroke-miterlimit:4;stroke-dasharray:none;stroke-dashoffset:0;stroke-opacity:1;stop-color:#000000;stop-opacity:1"
             d="M 76.975395,-253.93873 H 279.4754 l 23.25,-16.67062 H 52.225395 Z"
             id="path967"
             sodipodi:nodetypes="ccccc" />
          <path
             id="rect89"
             style="fill:none;stroke:#898a8d;stroke-width:1.125;stroke-miterlimit:4;stroke-dasharray:none;stop-color:#000000"
             d="m 135.51136,-272.7544 86.04671,-0.12577 c 1.2465,-0.002 1.5404,-1.22519 2.25,-2.25 l 3.30817,-4.77767 c 0.7096,-1.02481 -1.0035,-2.2511 -2.25,-2.25 l -95.55958,0.0839 c -1.2465,10e-4 -1.00174,1.27591 -0.27959,2.29192 l 3.39581,4.77767 c 0.22912,0.32235 1.25153,2.25013 3.04655,2.25 z"
             sodipodi:nodetypes="ssssssssss" />
          <path
             style="fill:none;stroke:#898a8d;stroke-width:0.75px;stroke-linecap:butt;stroke-linejoin:miter;stroke-opacity:1"
             d="M 297.51968,-267.05978 H 57.777025"
             id="path916"
             sodipodi:nodetypes="cc" />
          <path
             style="fill:none;stroke:#898a8d;stroke-width:0.75px;stroke-linecap:butt;stroke-linejoin:miter;stroke-opacity:1"
             d="M 293.20569,-263.83863 H 62.456055"
             id="path918"
             sodipodi:nodetypes="cc" />
          <path
             style="fill:none;stroke:#898a8d;stroke-width:0.75px;stroke-linecap:butt;stroke-linejoin:miter;stroke-opacity:1"
             d="M 288.44612,-260.61744 H 67.492165"
             id="path921"
             sodipodi:nodetypes="cc" />
          <path
             style="fill:none;stroke:#898a8d;stroke-width:0.75px;stroke-linecap:butt;stroke-linejoin:miter;stroke-opacity:1"
             d="M 284.09495,-257.3963 H 72.148675"
             id="path923"
             sodipodi:nodetypes="cc" />
          <path
             style="fill:none;stroke:#898a8d;stroke-width:0.75px;stroke-linecap:butt;stroke-linejoin:miter;stroke-opacity:1"
             d="m 76.696605,-270.70427 4.44289,3.65603"
             id="path935"
             sodipodi:nodetypes="cc" />
          <path
             style="font-variation-settings:normal;opacity:1;vector-effect:none;fill:none;fill-opacity:1;stroke:#898a8d;stroke-width:0.75px;stroke-linecap:butt;stroke-linejoin:miter;stroke-miterlimit:4;stroke-dasharray:none;stroke-dashoffset:0;stroke-opacity:1;stop-color:#000000;stop-opacity:1"
             d="m 131.05518,-270.44187 1.92373,3.53504"
             id="path937"
             sodipodi:nodetypes="cc" />
          <path
             style="font-variation-settings:normal;opacity:1;vector-effect:none;fill:none;fill-opacity:1;stroke:#898a8d;stroke-width:0.75px;stroke-linecap:butt;stroke-linejoin:miter;stroke-miterlimit:4;stroke-dasharray:none;stroke-dashoffset:0;stroke-opacity:1;stop-color:#000000;stop-opacity:1"
             d="m 94.566395,-270.40857 3.45138,3.41356"
             id="path962"
             sodipodi:nodetypes="cc" />
          <path
             style="font-variation-settings:normal;opacity:1;vector-effect:none;fill:none;fill-opacity:1;stroke:#898a8d;stroke-width:0.75px;stroke-linecap:butt;stroke-linejoin:miter;stroke-miterlimit:4;stroke-dasharray:none;stroke-dashoffset:0;stroke-opacity:1;stop-color:#000000;stop-opacity:1"
             d="m 112.21692,-270.40857 2.73824,3.43231"
             id="path964"
             sodipodi:nodetypes="cc" />
          <path
             style="font-variation-settings:normal;opacity:1;vector-effect:none;fill:none;fill-opacity:1;stroke:#898a8d;stroke-width:0.75px;stroke-linecap:butt;stroke-linejoin:miter;stroke-miterlimit:4;stroke-dasharray:none;stroke-dashoffset:0;stroke-opacity:1;stop-color:#000000;stop-opacity:1"
             d="m 224.40787,-270.96521 -2.16718,3.90638"
             id="path978"
             sodipodi:nodetypes="cc" />
          <path
             style="font-variation-settings:normal;opacity:1;vector-effect:none;fill:none;fill-opacity:1;stroke:#898a8d;stroke-width:0.75px;stroke-linecap:butt;stroke-linejoin:miter;stroke-miterlimit:4;stroke-dasharray:none;stroke-dashoffset:0;stroke-opacity:1;stop-color:#000000;stop-opacity:1"
             d="m 242.18662,-270.77196 -2.84592,3.69107"
             id="path980"
             sodipodi:nodetypes="cc" />
          <path
             style="font-variation-settings:normal;opacity:1;vector-effect:none;fill:none;fill-opacity:1;stroke:#898a8d;stroke-width:0.75px;stroke-linecap:butt;stroke-linejoin:miter;stroke-miterlimit:4;stroke-dasharray:none;stroke-dashoffset:0;stroke-opacity:1;stop-color:#000000;stop-opacity:1"
             d="m 258.41939,-270.57872 -3.27466,3.37749"
             id="path982"
             sodipodi:nodetypes="cc" />
          <path
             style="font-variation-settings:normal;opacity:1;vector-effect:none;fill:none;fill-opacity:1;stroke:#898a8d;stroke-width:0.75px;stroke-linecap:butt;stroke-linejoin:miter;stroke-miterlimit:4;stroke-dasharray:none;stroke-dashoffset:0;stroke-opacity:1;stop-color:#000000;stop-opacity:1"
             d="m 273.29943,-270.57872 -7.71337,6.70796"
             id="path984"
             sodipodi:nodetypes="cc" />
          <path
             style="font-variation-settings:normal;opacity:1;vector-effect:none;fill:none;fill-opacity:1;stroke:#898a8d;stroke-width:0.75px;stroke-linecap:butt;stroke-linejoin:miter;stroke-miterlimit:4;stroke-dasharray:none;stroke-dashoffset:0;stroke-opacity:1;stop-color:#000000;stop-opacity:1"
             d="m 288.37272,-270.38547 -8.87082,6.64142"
             id="path986"
             sodipodi:nodetypes="cc" />
          <g
             id="g1017"
             clip-path="url(#clipPath1019-7)"
             style="stroke:#898a8d;stroke-opacity:1">
            <path
               style="fill:none;stroke:#898a8d;stroke-width:0.75px;stroke-linecap:butt;stroke-linejoin:miter;stroke-opacity:1"
               d="m 84.000002,-267.11721 94.509998,79.3682 -78.01,-79.3682"
               id="path998"
               sodipodi:nodetypes="ccc" />
            <path
               style="fill:none;stroke:#898a8d;stroke-width:0.75px;stroke-linecap:butt;stroke-linejoin:miter;stroke-opacity:1"
               d="m 117,-267.11721 61.51,79.36819 -45.01,-79.36819"
               id="path1000"
               sodipodi:nodetypes="ccc" />
            <path
               style="fill:none;stroke:#898a8d;stroke-width:0.75px;stroke-linecap:butt;stroke-linejoin:miter;stroke-opacity:1"
               d="m 150,-267.11721 28.51,79.36819 -12.01,-79.36819"
               id="path1008"
               sodipodi:nodetypes="ccc" />
          </g>
          <g
             id="g1049"
             clip-path="url(#clipPath1019-7)"
             style="stroke:#898a8d;stroke-opacity:1"
             transform="matrix(-1.159337,0,0,1,378.67051,1.162437e-5)">
            <path
               style="fill:none;stroke:#898a8d;stroke-width:0.75px;stroke-linecap:butt;stroke-linejoin:miter;stroke-opacity:1"
               d="m 178.51,-187.74901 -73.43439,-79.3682"
               id="path1043"
               sodipodi:nodetypes="cc" />
            <path
               style="fill:none;stroke:#898a8d;stroke-width:0.75px;stroke-linecap:butt;stroke-linejoin:miter;stroke-opacity:1"
               d="m 117,-267.11721 61.51,79.36819 -45.01,-79.36819"
               id="path1045"
               sodipodi:nodetypes="ccc" />
            <path
               style="fill:none;stroke:#898a8d;stroke-width:0.75px;stroke-linecap:butt;stroke-linejoin:miter;stroke-opacity:1"
               d="m 150,-267.11721 28.51,79.36819 -12.01,-79.36819"
               id="path1047"
               sodipodi:nodetypes="ccc" />
          </g>
          <g
             id="g1057"
             clip-path="url(#clipPath121-9)"
             style="stroke:#898a8d;stroke-opacity:1"
             transform="translate(-0.76971947,3.2783592)">
            <path
               style="fill:none;stroke:#898a8d;stroke-width:0.75px;stroke-linecap:butt;stroke-linejoin:miter;stroke-opacity:1"
               d="M 84.000002,-267.11721 179.27972,-191.02738 100.5,-267.11721"
               id="path1051"
               sodipodi:nodetypes="ccc" />
            <path
               style="fill:none;stroke:#898a8d;stroke-width:0.75px;stroke-linecap:butt;stroke-linejoin:miter;stroke-opacity:1"
               d="m 117,-267.11721 62.27972,76.08984 L 133.5,-267.11721"
               id="path1053"
               sodipodi:nodetypes="ccc" />
            <path
               style="fill:none;stroke:#898a8d;stroke-width:0.75px;stroke-linecap:butt;stroke-linejoin:miter;stroke-opacity:1"
               d="m 150,-267.11721 29.27972,76.08984 L 166.5,-267.11721"
               id="path1055"
               sodipodi:nodetypes="ccc" />
          </g>
          <g
             id="g131"
             clip-path="url(#clipPath135-1)"
             style="stroke:#898a8d;stroke-opacity:1"
             transform="matrix(-1.0262008,0,0,1,354.92544,3.2064125)">
            <path
               style="fill:none;stroke:#898a8d;stroke-width:0.75px;stroke-linecap:butt;stroke-linejoin:miter;stroke-opacity:1"
               d="M 84.000002,-267.11721 171.91123,-190.95543 100.5,-267.11721"
               id="path125"
               sodipodi:nodetypes="ccc" />
            <path
               style="fill:none;stroke:#898a8d;stroke-width:0.75px;stroke-linecap:butt;stroke-linejoin:miter;stroke-opacity:1"
               d="m 117,-267.11721 54.91123,76.16179 L 133.5,-267.11721"
               id="path127"
               sodipodi:nodetypes="ccc" />
            <path
               style="fill:none;stroke:#898a8d;stroke-width:0.75px;stroke-linecap:butt;stroke-linejoin:miter;stroke-opacity:1"
               d="m 150,-267.11721 21.91123,76.16178 -5.41123,-76.16178"
               id="path129"
               sodipodi:nodetypes="ccc" />
          </g>
          <g
             id="g972"
             clip-path="url(#clipPath985-4)"
             style="stroke:#898a8d;stroke-opacity:1"
             transform="translate(-0.76971947,6.6243111)">
            <path
               style="fill:none;stroke:#898a8d;stroke-width:0.75px;stroke-linecap:butt;stroke-linejoin:miter;stroke-opacity:1"
               d="M 84.000002,-267.11721 179.27972,-194.37334 100.5,-267.11721"
               id="path965"
               sodipodi:nodetypes="ccc" />
            <path
               style="fill:none;stroke:#898a8d;stroke-width:0.75px;stroke-linecap:butt;stroke-linejoin:miter;stroke-opacity:1"
               d="m 117,-267.11721 62.27972,72.74387 L 133.5,-267.11721"
               id="path968"
               sodipodi:nodetypes="ccc" />
            <path
               style="fill:none;stroke:#898a8d;stroke-width:0.75px;stroke-linecap:butt;stroke-linejoin:miter;stroke-opacity:1"
               d="m 150,-267.11721 29.27972,72.74387 L 166.5,-267.11721"
               id="path970"
               sodipodi:nodetypes="ccc" />
          </g>
          <g
             id="g981"
             clip-path="url(#clipPath135-1)"
             style="stroke:#898a8d;stroke-opacity:1"
             transform="matrix(-1.0262008,0,0,1,354.92544,6.5523644)">
            <path
               style="fill:none;stroke:#898a8d;stroke-width:0.75px;stroke-linecap:butt;stroke-linejoin:miter;stroke-opacity:1"
               d="M 84.000002,-267.11721 171.91123,-194.30139 100.5,-267.11721"
               id="path974"
               sodipodi:nodetypes="ccc" />
            <path
               style="fill:none;stroke:#898a8d;stroke-width:0.75px;stroke-linecap:butt;stroke-linejoin:miter;stroke-opacity:1"
               d="m 117,-267.11721 54.91123,72.81582 L 133.5,-267.11721"
               id="path976"
               sodipodi:nodetypes="ccc" />
            <path
               style="fill:none;stroke:#898a8d;stroke-width:0.75px;stroke-linecap:butt;stroke-linejoin:miter;stroke-opacity:1"
               d="m 150,-267.11721 21.91123,72.81583 -5.41123,-72.81583"
               id="path979"
               sodipodi:nodetypes="ccc" />
          </g>
        </g>
      </g>
    </g>
  </g>
</svg>
